{
	"id": "rwjrsujbodq4zwmw5cnk4sibhq",
	"version": "1531004ee4c98894ab11f8a4ce6206099e732c1da15121987a8eef54828f0663",
	"input": {
		"guidance_scale": 7.5,
		"motion_module": "mm_sd_v15",
		"n_prompt": "dof, grayscale, black and white, bw, 3d, cartoon, anime, sketches, worst quality, low quality, normal quality, lowres, normal quality, monochrome, grayscale, skin spots, acnes, skin blemishes, bad anatomy, girl, loli, young, large breasts, red eyes, muscular,badhandsv5-neg, By bad artist -neg 1, monochrome",
		"path": "majicmixRealistic_v5Preview.safetensors",
		"prompt": "dark theme, medieval portrait of a man sharp features, grim, cold stare, dark colors, Volumetric lighting, baroque oil painting by Greg Rutkowski, Artgerm, WLOP, Alphonse Mucha dynamic lighting hyperdetailed intricately detailed, hdr, muted colors, complex background, hyperrealism, hyperdetailed, amandine van ray",
		"seed": 0,
		"steps": 25
	},
	"logs": "current seed: 11432033055810131047\nsampling: dark theme, medieval portrait of a man sharp features, grim, cold stare, dark colors, Volumetric lighting, baroque oil painting by Greg Rutkowski, Artgerm, WLOP, Alphonse Mucha dynamic lighting hyperdetailed intricately detailed, hdr, muted colors, complex background, hyperrealism, hyperdetailed, amandine van ray ...\n  0%|          | 0/25 [00:00<?, ?it/s]\n  4%|▍         | 1/25 [00:01<00:39,  1.64s/it]\n  8%|▊         | 2/25 [00:03<00:36,  1.61s/it]\n 12%|█▏        | 3/25 [00:04<00:35,  1.60s/it]\n 16%|█▌        | 4/25 [00:06<00:33,  1.59s/it]\n 20%|██        | 5/25 [00:07<00:31,  1.59s/it]\n 24%|██▍       | 6/25 [00:09<00:30,  1.59s/it]\n 28%|██▊       | 7/25 [00:11<00:28,  1.59s/it]\n 32%|███▏      | 8/25 [00:12<00:26,  1.59s/it]\n 36%|███▌      | 9/25 [00:14<00:25,  1.59s/it]\n 40%|████      | 10/25 [00:15<00:23,  1.59s/it]\n 44%|████▍     | 11/25 [00:17<00:22,  1.59s/it]\n 48%|████▊     | 12/25 [00:19<00:20,  1.59s/it]\n 52%|█████▏    | 13/25 [00:20<00:19,  1.59s/it]\n 56%|█████▌    | 14/25 [00:22<00:17,  1.59s/it]\n 60%|██████    | 15/25 [00:23<00:15,  1.59s/it]\n 64%|██████▍   | 16/25 [00:25<00:14,  1.59s/it]\n 68%|██████▊   | 17/25 [00:27<00:12,  1.59s/it]\n 72%|███████▏  | 18/25 [00:28<00:11,  1.59s/it]\n 76%|███████▌  | 19/25 [00:30<00:09,  1.59s/it]\n 80%|████████  | 20/25 [00:31<00:07,  1.59s/it]\n 84%|████████▍ | 21/25 [00:33<00:06,  1.59s/it]\n 88%|████████▊ | 22/25 [00:34<00:04,  1.59s/it]\n 92%|█████████▏| 23/25 [00:36<00:03,  1.59s/it]\n 96%|█████████▌| 24/25 [00:38<00:01,  1.59s/it]\n100%|██████████| 25/25 [00:39<00:00,  1.59s/it]\n100%|██████████| 25/25 [00:39<00:00,  1.59s/it]\n  0%|          | 0/16 [00:00<?, ?it/s]\n 31%|███▏      | 5/16 [00:00<00:00, 46.69it/s]\n 62%|██████▎   | 10/16 [00:00<00:00, 24.57it/s]\n 88%|████████▊ | 14/16 [00:00<00:00, 21.67it/s]\n100%|██████████| 16/16 [00:00<00:00, 22.74it/s]\nffmpeg version 4.4.2-0ubuntu0.22.04.1 Copyright (c) 2000-2021 the FFmpeg developers\nbuilt with gcc 11 (Ubuntu 11.2.0-19ubuntu1)\nconfiguration: --prefix=/usr --extra-version=0ubuntu0.22.04.1 --toolchain=hardened --libdir=/usr/lib/x86_64-linux-gnu --incdir=/usr/include/x86_64-linux-gnu --arch=amd64 --enable-gpl --disable-stripping --enable-gnutls --enable-ladspa --enable-libaom --enable-libass --enable-libbluray --enable-libbs2b --enable-libcaca --enable-libcdio --enable-libcodec2 --enable-libdav1d --enable-libflite --enable-libfontconfig --enable-libfreetype --enable-libfribidi --enable-libgme --enable-libgsm --enable-libjack --enable-libmp3lame --enable-libmysofa --enable-libopenjpeg --enable-libopenmpt --enable-libopus --enable-libpulse --enable-librabbitmq --enable-librubberband --enable-libshine --enable-libsnappy --enable-libsoxr --enable-libspeex --enable-libsrt --enable-libssh --enable-libtheora --enable-libtwolame --enable-libvidstab --enable-libvorbis --enable-libvpx --enable-libwebp --enable-libx265 --enable-libxml2 --enable-libxvid --enable-libzimg --enable-libzmq --enable-libzvbi --enable-lv2 --enable-omx --enable-openal --enable-opencl --enable-opengl --enable-sdl2 --enable-pocketsphinx --enable-librsvg --enable-libmfx --enable-libdc1394 --enable-libdrm --enable-libiec61883 --enable-chromaprint --enable-frei0r --enable-libx264 --enable-shared\nlibavutil      56. 70.100 / 56. 70.100\nlibavcodec     58.134.100 / 58.134.100\nlibavformat    58. 76.100 / 58. 76.100\nlibavdevice    58. 13.100 / 58. 13.100\nlibavfilter     7.110.100 /  7.110.100\nlibswscale      5.  9.100 /  5.  9.100\nlibswresample   3.  9.100 /  3.  9.100\nlibpostproc    55.  9.100 / 55.  9.100\nInput #0, gif, from 'output.gif':\nDuration: 00:00:02.08, start: 0.000000, bitrate: 12452 kb/s\nStream #0:0: Video: gif, bgra, 512x512, 7.67 fps, 23.08 tbr, 100 tbn, 100 tbc\nStream mapping:\nStream #0:0 -> #0:0 (gif (native) -> h264 (libx264))\nPress [q] to stop, [?] for help\n[libx264 @ 0x5c4f90584280] using cpu capabilities: MMX2 SSE2Fast SSSE3 SSE4.2 AVX FMA3 BMI2 AVX2 AVX512\n[libx264 @ 0x5c4f90584280] profile High, level 3.0, 4:2:0, 8-bit\n[libx264 @ 0x5c4f90584280] 264 - core 163 r3060 5db6aa6 - H.264/MPEG-4 AVC codec - Copyleft 2003-2021 - http://www.videolan.org/x264.html - options: cabac=1 ref=3 deblock=1:0:0 analyse=0x3:0x113 me=hex subme=7 psy=1 psy_rd=1.00:0.00 mixed_ref=1 me_range=16 chroma_me=1 trellis=1 8x8dct=1 cqm=0 deadzone=21,11 fast_pskip=1 chroma_qp_offset=-2 threads=16 lookahead_threads=2 sliced_threads=0 nr=0 decimate=1 interlaced=0 bluray_compat=0 constrained_intra=0 bframes=3 b_pyramid=2 b_adapt=1 b_bias=0 direct=1 weightb=1 open_gop=0 weightp=2 keyint=250 keyint_min=23 scenecut=40 intra_refresh=0 rc=cqp mbtree=0 qp=17 ip_ratio=1.40 pb_ratio=1.30 aq=0\nOutput #0, mp4, to '/tmp/tmpsws8f5ms/out.mp4':\nMetadata:\nencoder         : Lavf58.76.100\nStream #0:0: Video: h264 (avc1 / 0x31637661), yuv420p(tv, progressive), 512x512, q=2-31, 23.08 fps, 17728 tbn\nMetadata:\nencoder         : Lavc58.134.100 libx264\nSide data:\ncpb: bitrate max/min/avg: 0/0/0 buffer size: 0 vbv_delay: N/A\nframe=    3 fps=0.0 q=0.0 size=       0kB time=00:00:00.00 bitrate=N/A dup=2 drop=0 speed=N/A\n[mp4 @ 0x5c4f905825c0] Starting second pass: moving the moov atom to the beginning of the file\nframe=   48 fps=0.0 q=-1.0 Lsize=     111kB time=00:00:01.94 bitrate= 465.9kbits/s dup=32 drop=0 speed=10.5x\nvideo:109kB audio:0kB subtitle:0kB other streams:0kB global headers:0kB muxing overhead: 1.273817%\n[libx264 @ 0x5c4f90584280] frame I:1     Avg QP:14.00  size: 35673\n[libx264 @ 0x5c4f90584280] frame P:12    Avg QP:17.00  size:  4955\n[libx264 @ 0x5c4f90584280] frame B:35    Avg QP:18.66  size:   467\n[libx264 @ 0x5c4f90584280] consecutive B-frames:  2.1%  0.0%  6.2% 91.7%\n[libx264 @ 0x5c4f90584280] mb I  I16..4: 28.6% 30.3% 41.1%\n[libx264 @ 0x5c4f90584280] mb P  I16..4:  0.7%  0.1%  0.1%  P16..4: 26.8%  8.1% 11.3%  0.0%  0.0%    skip:52.8%\n[libx264 @ 0x5c4f90584280] mb B  I16..4:  0.0%  0.0%  0.0%  B16..8: 19.1%  0.6%  0.2%  direct: 0.3%  skip:79.7%  L0:45.7% L1:52.3% BI: 2.0%\n[libx264 @ 0x5c4f90584280] 8x8 transform intra:28.2% inter:65.2%\n[libx264 @ 0x5c4f90584280] coded y,uvDC,uvAC intra: 64.3% 68.7% 41.1% inter: 6.6% 4.3% 0.1%\n[libx264 @ 0x5c4f90584280] i16 v,h,dc,p: 27%  3%  4% 66%\n[libx264 @ 0x5c4f90584280] i8 v,h,dc,ddl,ddr,vr,hd,vl,hu: 24%  8% 17%  6% 11% 13%  5% 10%  5%\n[libx264 @ 0x5c4f90584280] i4 v,h,dc,ddl,ddr,vr,hd,vl,hu: 26%  8% 13%  8% 10% 15%  5% 10%  5%\n[libx264 @ 0x5c4f90584280] i8c dc,h,v,p: 52% 13% 27%  8%\n[libx264 @ 0x5c4f90584280] Weighted P-Frames: Y:0.0% UV:0.0%\n[libx264 @ 0x5c4f90584280] ref P L0: 63.2%  4.8% 20.8% 11.2%\n[libx264 @ 0x5c4f90584280] ref B L0: 86.2%  8.0%  5.8%\n[libx264 @ 0x5c4f90584280] ref B L1: 95.9%  4.1%\n[libx264 @ 0x5c4f90584280] kb/s:428.82\nsaved to file\n",
	"output": "https://replicate.delivery/pbxt/BCLMel1e22mZO0A5kvZW6i14KGd7LWvE3AtpIkrv6NQVilcRA/out.mp4",
	"error": null,
	"status": "succeeded",
	"created_at": "2023-08-22T12:13:26.751876Z",
	"started_at": "2023-08-22T12:13:26.767584Z",
	"completed_at": "2023-08-22T12:14:13.306607Z",
	"metrics": {
		"predict_time": 46.539023
	},
	"urls": {
		"cancel": "https://api.replicate.com/v1/predictions/rwjrsujbodq4zwmw5cnk4sibhq/cancel",
		"get": "https://api.replicate.com/v1/predictions/rwjrsujbodq4zwmw5cnk4sibhq"
	}
}
